<svg xmlns="http://www.w3.org/2000/svg" width="231.887" height="103.377" viewBox="0 0 231.887 103.377">
  <g id="Group_3017" data-name="Group 3017" transform="translate(-1526.271 -469.602)">
    <path id="Rectangle_44" data-name="Rectangle 44" d="M2.4,0H8.766a2.4,2.4,0,0,1,2.4,2.4v.073a2.33,2.33,0,0,1-2.33,2.33H2.4A2.4,2.4,0,0,1,0,2.4v0A2.4,2.4,0,0,1,2.4,0Z" transform="matrix(0.966, 0.259, -0.259, 0.966, 1581.551, 523.013)" fill="#ee6f39"/>
    <g id="Group_202" data-name="Group 202" transform="translate(1567.683 469.602)">
      <path id="Path_143" data-name="Path 143" d="M1717.812,477.4a7.433,7.433,0,0,1,1.172.508,14.4,14.4,0,0,1,3.665,2.2c.72.664.993,1.277.832,1.875s-.7.994-1.658,1.208a14.4,14.4,0,0,1-4.272.069,127.658,127.658,0,0,1-27.669-7.414,14.369,14.369,0,0,1-3.664-2.2c-.72-.664-.993-1.277-.833-1.875s.7-.993,1.658-1.208a14.412,14.412,0,0,1,4.272-.068,7.457,7.457,0,0,1,1.271.147c-5.634-1.509-11.469-1.76-12.435,1.847-1.375,5.131,9.449,10.92,21.655,14.191s24.393,3.968,25.849-1.462C1728.622,481.613,1723.776,479,1717.812,477.4Z" transform="translate(-1680.034 -469.602)" fill="#002f7e"/>
    </g>
    <path id="Path_144" data-name="Path 144" d="M1577.7,564.958" transform="translate(-37.605 -69.685)" fill="#002f7e"/>
    <path id="Path_145" data-name="Path 145" d="M1665.537,523.627a16.467,16.467,0,0,1,1.418,1c1.5,1.2,2.1,2.28,1.831,3.3s-1.329,1.65-3.233,1.939a33.759,33.759,0,0,1-8.581-.24c-6.628-.824-15.944-2.857-28.48-6.216s-21.619-6.256-27.77-8.857a33.736,33.736,0,0,1-7.552-4.082c-1.5-1.2-2.1-2.28-1.831-3.3s1.33-1.649,3.233-1.938a16.059,16.059,0,0,1,1.719-.157q1.178-.813,2.4-1.551c-7.847-.19-13.125,1.481-14.331,5.976-2.537,9.47,16.837,17.125,41.495,23.732s45.265,9.665,47.8.195c1.2-4.5-2.532-8.583-9.425-12.343" transform="translate(-42.314 -24.794)" fill="#002f7e"/>
    <path id="Path_146" data-name="Path 146" d="M1622.205,671.451c-.291.543-.587,1.08-.9,1.608a3.2,3.2,0,0,1,.368,2.442c-.373,1.39-1.644,2.306-3.888,2.8a34.161,34.161,0,0,1-10.034.13c-7.715-.763-18.514-3.023-33.01-6.907S1549.768,664.2,1542.7,661a34.169,34.169,0,0,1-8.624-5.129c-1.7-1.549-2.341-2.977-1.968-4.367a3.19,3.19,0,0,1,1.539-1.93q-.006-.918.026-1.84c-3.722,1.183-6.207,3.318-7.1,6.649-3.139,11.713,18.139,20.461,45.326,27.746s49.987,10.347,53.125-1.366C1625.922,677.43,1624.837,674.338,1622.205,671.451Z" transform="translate(0 -130.086)" fill="#5da32c"/>
    <path id="Path_147" data-name="Path 147" d="M1635.687,774.488a2.872,2.872,0,0,1-2.315,1.768,18.826,18.826,0,0,1-5.937.219c-4.554-.383-10.909-1.68-19.431-3.963s-14.674-4.338-18.81-6.283a18.85,18.85,0,0,1-5.031-3.157,2.876,2.876,0,0,1-1.122-2.688q-.687-.833-1.336-1.7a5.762,5.762,0,0,0-2.455,3.4c-2.016,7.518,10.12,14.94,26.376,19.3s30.478,4,32.491-3.523a5.758,5.758,0,0,0-.425-4.174Q1636.7,774.111,1635.687,774.488Z" transform="translate(-38.58 -211.219)" fill="#5da32c"/>
    <path id="Path_148" data-name="Path 148" d="M1789.995,645.47c.028.617.046,1.236.048,1.857a20.707,20.707,0,0,1,1.831,1.293c1.9,1.53,2.661,2.9,2.314,4.2s-1.689,2.107-4.1,2.48a42.522,42.522,0,0,1-10.881-.288,218.755,218.755,0,0,1-24.079-4.777,3.345,3.345,0,0,0-.4-.138c-2.49-.667-5.276,1.655-6.222,5.188s.3,6.937,2.795,7.6c24.954,5.863,44.479,7.208,47.321-3.4C1799.981,654.383,1796.605,649.739,1789.995,645.47Z" transform="translate(-162.141 -128.502)" fill="#5da32c"/>
    <path id="Path_149" data-name="Path 149" d="M1569.365,591.01a3.3,3.3,0,0,1-2.495.358c-1.941-.52-3.015-2.805-2.4-5.1s2.688-3.74,4.63-3.22a3.3,3.3,0,0,1,1.981,1.557l2.138.573a5.38,5.38,0,0,0-3.713-4.416,4.542,4.542,0,0,0-.51-.1,219.423,219.423,0,0,1-23.324-7.927,42.54,42.54,0,0,1-9.568-5.191c-1.905-1.531-2.662-2.9-2.315-4.2s1.689-2.107,4.1-2.48a20.39,20.39,0,0,1,2.235-.205q.47-.8.969-1.584c-7.86.391-13.106,2.725-14.476,7.837-2.842,10.6,14.74,19.2,39.283,26.6V593.5c.058.018.115.036.173.052a5.382,5.382,0,0,0,5.425-1.967Z" transform="translate(-0.035 -65.36)" fill="#002f7e"/>
    <path id="Path_150" data-name="Path 150" d="M1688.4,658.381l-6.4-1.714a2.4,2.4,0,0,0-2.942,1.7h0a2.4,2.4,0,0,0,1.7,2.943l6.469,1.734a2.122,2.122,0,0,0,2.6-1.716l.02-.07A2.195,2.195,0,0,0,1688.4,658.381Zm-.6,3.606c-.443-.119-.659-.749-.481-1.407s.678-1.1,1.12-.978.66.749.483,1.408S1688.245,662.105,1687.8,661.987Z" transform="translate(-111.592 -136.639)" fill="#ee6f39"/>
    <path id="Path_151" data-name="Path 151" d="M2012.765,600.6h5.016v5.016h-5.016v26.9h-5.016v-26.9h-5.016V600.6h10.032Zm50.951-5.794h5.016v-5.016h-5.016v-26.9H2058.7V594.8h5.016Zm18.846-5.016h-5.106V577.93h5.076v-5.016h-5.076V567.9h5.076v-5.016H2072.44V594.8h10.122Zm-2.538,10.81h-2.508v31.919h10.093V627.5h-5.076V615.644h5.076v-5.016h-5.076v-5.016h5.076V600.6h-7.584Zm-24.906,7.524h0v24.395H2050.1v-6.359l-5.016-4.321v10.68h-5.017V607.243h.052a7.525,7.525,0,0,1,14.947,0h.051v.876Zm-5.016,0a2.508,2.508,0,1,0-5.016,0v7.091l5.016,4.321Zm-13.624-37.714v24.4h-5.016v-6.358l-5.015-4.322V594.8h-5.017v-24.4a7.524,7.524,0,0,1,15.048,0Zm-5.016,11.413V570.407a2.507,2.507,0,1,0-5.015,0V577.5Zm12.51,12.983h-3.845V562.883h7.464a7.525,7.525,0,0,1,5.61,12.537,7.5,7.5,0,0,1,1.913,5.013v6.846a7.524,7.524,0,0,1-7.523,7.523h-3.619Zm6.127-14.369a2.508,2.508,0,0,0-2.374-2.5h-2.582v11.856h2.448a2.508,2.508,0,0,0,2.508-2.507Zm-4.956-12.534v5.011h2.448l.134,0a2.508,2.508,0,0,0-.134-5.012Zm28.727,40.222v16.872a7.522,7.522,0,0,1-7.524,7.523h-7.524V600.6h7.524A7.523,7.523,0,0,1,2073.868,608.12Zm-5.016,0a2.508,2.508,0,0,0-2.508-2.509h-2.509V627.5h2.509a2.508,2.508,0,0,0,2.508-2.508Zm-58.594-45.238a7.524,7.524,0,0,0-7.525,7.524v16.872a7.524,7.524,0,0,0,15.048,0v-3.421h-5.016v3.421a2.508,2.508,0,0,1-5.016,0V570.407a2.508,2.508,0,1,1,5.016,0v3.42h5.016v-3.42A7.524,7.524,0,0,0,2010.258,562.883Zm24.067,50.25-2.846,2.846,5,4.779v11.757h-5.016V622.9l-3.528-3.375-1.486,1.487v11.5h-5.017V600.6h7.7a7.344,7.344,0,0,1,5.192,12.537Zm-7.879-7.521v8.308l4.333-4.334a2.329,2.329,0,0,0-1.646-3.974Zm72.071,0h7.667V600.6h-7.667a7.382,7.382,0,0,0-6.005,11.672l8.216,11.492a2.363,2.363,0,0,1-1.923,3.74h-7.668v5.016h7.668a7.382,7.382,0,0,0,6-11.672l-8.215-11.492a2.365,2.365,0,0,1,1.924-3.739Z" transform="translate(-348.025 -68.042)" fill="#040506"/>
  </g>
</svg>
